<?xml version="1.0" encoding="UTF-8" standalone="no"?>
<!DOCTYPE svg PUBLIC "-//W3C//DTD SVG 1.1//EN"
 "http://www.w3.org/Graphics/SVG/1.1/DTD/svg11.dtd">
<!-- Generated by graphviz version 2.47.3 (20210619.1520)
 -->
<!-- Title: dependencies Pages: 1 -->
<svg width="318pt" height="174pt"
 viewBox="0.00 0.00 318.00 173.80" xmlns="http://www.w3.org/2000/svg" xmlns:xlink="http://www.w3.org/1999/xlink">
<g id="graph0" class="graph" transform="scale(1 1) rotate(0) translate(4 169.8)">
<title>dependencies</title>
<polygon fill="white" stroke="transparent" points="-4,4 -4,-169.8 314,-169.8 314,4 -4,4"/>
<text text-anchor="middle" x="155" y="-8.2" font-family="sans-serif" font-size="14.00">dependencies</text>
<g id="clust1" class="cluster">
<title>cluster_QuestionModule</title>
<polygon fill="none" stroke="black" stroke-dasharray="1,5" points="8,-32.8 8,-157.8 302,-157.8 302,-32.8 8,-32.8"/>
</g>
<g id="clust6" class="cluster">
<title>cluster_QuestionModule_providers</title>
<polygon fill="none" stroke="black" points="128,-40.8 128,-92.8 294,-92.8 294,-40.8 128,-40.8"/>
</g>
<g id="clust3" class="cluster">
<title>cluster_QuestionModule_imports</title>
<polygon fill="none" stroke="black" points="16,-40.8 16,-92.8 120,-92.8 120,-40.8 16,-40.8"/>
</g>
<!-- AuthModule -->
<g id="node1" class="node">
<title>AuthModule</title>
<polygon fill="#8dd3c7" stroke="black" points="111.55,-84.8 108.55,-88.8 87.55,-88.8 84.55,-84.8 24.45,-84.8 24.45,-48.8 111.55,-48.8 111.55,-84.8"/>
<text text-anchor="middle" x="68" y="-62.6" font-family="Times,serif" font-size="14.00">AuthModule</text>
</g>
<!-- QuestionModule -->
<g id="node2" class="node">
<title>QuestionModule</title>
<polygon fill="#8dd3c7" stroke="black" points="196.1,-149.8 193.1,-153.8 172.1,-153.8 169.1,-149.8 85.9,-149.8 85.9,-113.8 196.1,-113.8 196.1,-149.8"/>
<text text-anchor="middle" x="141" y="-127.6" font-family="Times,serif" font-size="14.00">QuestionModule</text>
</g>
<!-- AuthModule&#45;&gt;QuestionModule -->
<g id="edge1" class="edge">
<title>AuthModule&#45;&gt;QuestionModule</title>
<path fill="none" stroke="black" d="M98.86,-84.91C98.86,-84.91 98.86,-103.79 98.86,-103.79"/>
<polygon fill="black" stroke="black" points="95.36,-103.79 98.86,-113.79 102.36,-103.79 95.36,-103.79"/>
</g>
<!-- QuestionService -->
<g id="node3" class="node">
<title>QuestionService</title>
<ellipse fill="#fdb462" stroke="black" cx="211" cy="-66.8" rx="74.72" ry="18"/>
<text text-anchor="middle" x="211" y="-62.6" font-family="Times,serif" font-size="14.00">QuestionService</text>
</g>
<!-- QuestionService&#45;&gt;QuestionModule -->
<g id="edge2" class="edge">
<title>QuestionService&#45;&gt;QuestionModule</title>
<path fill="none" stroke="black" d="M166.1,-81.23C166.1,-81.23 166.1,-103.69 166.1,-103.69"/>
<polygon fill="black" stroke="black" points="162.6,-103.69 166.1,-113.69 169.6,-103.69 162.6,-103.69"/>
</g>
</g>
</svg>
