<?xml version="1.0" encoding="UTF-8" standalone="no"?>
<!DOCTYPE svg PUBLIC "-//W3C//DTD SVG 1.1//EN"
 "http://www.w3.org/Graphics/SVG/1.1/DTD/svg11.dtd">
<!-- Generated by graphviz version 2.47.3 (20210619.1520)
 -->
<!-- Title: dependencies Pages: 1 -->
<svg width="866pt" height="315pt"
 viewBox="0.00 0.00 866.00 314.80" xmlns="http://www.w3.org/2000/svg" xmlns:xlink="http://www.w3.org/1999/xlink">
<g id="graph0" class="graph" transform="scale(1 1) rotate(0) translate(4 310.8)">
<title>dependencies</title>
<polygon fill="white" stroke="transparent" points="-4,4 -4,-310.8 862,-310.8 862,4 -4,4"/>
<text text-anchor="middle" x="429" y="-8.2" font-family="sans-serif" font-size="14.00">dependencies</text>
<g id="clust1" class="cluster">
<title>cluster_AppModule</title>
<polygon fill="none" stroke="black" stroke-dasharray="1,5" points="198,-108.8 198,-298.8 480,-298.8 480,-108.8 198,-108.8"/>
</g>
<g id="clust3" class="cluster">
<title>cluster_AppModule_imports</title>
<polygon fill="none" stroke="black" points="206,-116.8 206,-233.8 460,-233.8 460,-116.8 206,-116.8"/>
</g>
<g id="clust7" class="cluster">
<title>cluster_AuthModule</title>
<polygon fill="none" stroke="black" stroke-dasharray="1,5" points="25,-32.8 25,-100.8 850,-100.8 850,-32.8 25,-32.8"/>
</g>
<g id="clust10" class="cluster">
<title>cluster_AuthModule_exports</title>
<polygon fill="none" stroke="black" points="613,-40.8 613,-92.8 842,-92.8 842,-40.8 613,-40.8"/>
</g>
<g id="clust12" class="cluster">
<title>cluster_AuthModule_providers</title>
<polygon fill="none" stroke="black" points="33,-40.8 33,-92.8 605,-92.8 605,-40.8 33,-40.8"/>
</g>
<g id="clust13" class="cluster">
<title>cluster_CategoryModule</title>
<polygon fill="none" stroke="black" stroke-dasharray="1,5" points="8,-108.8 8,-176.8 190,-176.8 190,-108.8 8,-108.8"/>
</g>
<g id="clust18" class="cluster">
<title>cluster_CategoryModule_providers</title>
<polygon fill="none" stroke="black" points="16,-116.8 16,-168.8 182,-168.8 182,-116.8 16,-116.8"/>
</g>
<g id="clust19" class="cluster">
<title>cluster_QuestionModule</title>
<polygon fill="none" stroke="black" stroke-dasharray="1,5" points="488,-108.8 488,-176.8 670,-176.8 670,-108.8 488,-108.8"/>
</g>
<g id="clust24" class="cluster">
<title>cluster_QuestionModule_providers</title>
<polygon fill="none" stroke="black" points="496,-116.8 496,-168.8 662,-168.8 662,-116.8 496,-116.8"/>
</g>
<!-- AuthModule -->
<g id="node1" class="node">
<title>AuthModule</title>
<polygon fill="#8dd3c7" stroke="black" points="440.55,-160.8 437.55,-164.8 416.55,-164.8 413.55,-160.8 353.45,-160.8 353.45,-124.8 440.55,-124.8 440.55,-160.8"/>
<text text-anchor="middle" x="397" y="-138.6" font-family="Times,serif" font-size="14.00">AuthModule</text>
</g>
<!-- CategoryModule -->
<g id="node2" class="node">
<title>CategoryModule</title>
<polygon fill="#8dd3c7" stroke="black" points="324.37,-225.8 321.37,-229.8 300.37,-229.8 297.37,-225.8 213.63,-225.8 213.63,-189.8 324.37,-189.8 324.37,-225.8"/>
<text text-anchor="middle" x="269" y="-203.6" font-family="Times,serif" font-size="14.00">CategoryModule</text>
</g>
<!-- AuthModule&#45;&gt;CategoryModule -->
<g id="edge10" class="edge">
<title>AuthModule&#45;&gt;CategoryModule</title>
<path fill="none" stroke="black" d="M353.33,-148.8C332.34,-148.8 311.66,-148.8 311.66,-148.8 311.66,-148.8 311.66,-179.78 311.66,-179.78"/>
<polygon fill="black" stroke="black" points="308.16,-179.78 311.66,-189.78 315.16,-179.78 308.16,-179.78"/>
</g>
<!-- QuestionModule -->
<g id="node3" class="node">
<title>QuestionModule</title>
<polygon fill="#8dd3c7" stroke="black" points="452.1,-225.8 449.1,-229.8 428.1,-229.8 425.1,-225.8 341.9,-225.8 341.9,-189.8 452.1,-189.8 452.1,-225.8"/>
<text text-anchor="middle" x="397" y="-203.6" font-family="Times,serif" font-size="14.00">QuestionModule</text>
</g>
<!-- AuthModule&#45;&gt;QuestionModule -->
<g id="edge12" class="edge">
<title>AuthModule&#45;&gt;QuestionModule</title>
<path fill="none" stroke="black" d="M397,-160.91C397,-160.91 397,-179.79 397,-179.79"/>
<polygon fill="black" stroke="black" points="393.5,-179.79 397,-189.79 400.5,-179.79 393.5,-179.79"/>
</g>
<!-- AppModule -->
<g id="node4" class="node">
<title>AppModule</title>
<polygon fill="#8dd3c7" stroke="black" points="438.66,-290.8 435.66,-294.8 414.66,-294.8 411.66,-290.8 355.34,-290.8 355.34,-254.8 438.66,-254.8 438.66,-290.8"/>
<text text-anchor="middle" x="397" y="-268.6" font-family="Times,serif" font-size="14.00">AppModule</text>
</g>
<!-- AuthModule&#45;&gt;AppModule -->
<g id="edge1" class="edge">
<title>AuthModule&#45;&gt;AppModule</title>
<path fill="none" stroke="black" d="M353.38,-154.8C342.17,-154.8 333.19,-154.8 333.19,-154.8 333.19,-154.8 333.19,-266.8 333.19,-266.8 333.19,-266.8 345.15,-266.8 345.15,-266.8"/>
<polygon fill="black" stroke="black" points="345.15,-270.3 355.15,-266.8 345.15,-263.3 345.15,-270.3"/>
</g>
<!-- AdminStrategy  -->
<g id="node5" class="node">
<title>AdminStrategy </title>
<polygon fill="#fb8072" stroke="black" points="833.54,-84.8 728.46,-84.8 728.46,-48.8 833.54,-48.8 833.54,-84.8"/>
<text text-anchor="middle" x="781" y="-62.6" font-family="Times,serif" font-size="14.00">AdminStrategy </text>
</g>
<!-- AuthModule&#45;&gt;AdminStrategy  -->
<g id="edge4" class="edge">
<title>AuthModule&#45;&gt;AdminStrategy </title>
<path fill="none" stroke="black" stroke-dasharray="5,2" d="M417.78,-124.77C417.78,-117.95 417.78,-111.8 417.78,-111.8 417.78,-111.8 781,-111.8 781,-111.8 781,-111.8 781,-94.84 781,-94.84"/>
<polygon fill="black" stroke="black" points="784.5,-94.84 781,-84.84 777.5,-94.84 784.5,-94.84"/>
</g>
<!-- AuthService  -->
<g id="node6" class="node">
<title>AuthService </title>
<polygon fill="#fb8072" stroke="black" points="710.98,-84.8 621.02,-84.8 621.02,-48.8 710.98,-48.8 710.98,-84.8"/>
<text text-anchor="middle" x="666" y="-62.6" font-family="Times,serif" font-size="14.00">AuthService </text>
</g>
<!-- AuthModule&#45;&gt;AuthService  -->
<g id="edge5" class="edge">
<title>AuthModule&#45;&gt;AuthService </title>
<path fill="none" stroke="black" stroke-dasharray="5,2" d="M396.27,-124.65C396.27,-112.53 396.27,-98.8 396.27,-98.8 396.27,-98.8 637.56,-98.8 637.56,-98.8 637.56,-98.8 637.56,-95.04 637.56,-95.04"/>
<polygon fill="black" stroke="black" points="641.06,-95.04 637.56,-85.04 634.06,-95.04 641.06,-95.04"/>
</g>
<!-- CategoryModule&#45;&gt;AppModule -->
<g id="edge2" class="edge">
<title>CategoryModule&#45;&gt;AppModule</title>
<path fill="none" stroke="black" d="M269,-226.08C269,-247.12 269,-278.8 269,-278.8 269,-278.8 345.09,-278.8 345.09,-278.8"/>
<polygon fill="black" stroke="black" points="345.09,-282.3 355.09,-278.8 345.09,-275.3 345.09,-282.3"/>
</g>
<!-- QuestionModule&#45;&gt;AppModule -->
<g id="edge3" class="edge">
<title>QuestionModule&#45;&gt;AppModule</title>
<path fill="none" stroke="black" d="M397,-225.91C397,-225.91 397,-244.79 397,-244.79"/>
<polygon fill="black" stroke="black" points="393.5,-244.79 397,-254.79 400.5,-244.79 393.5,-244.79"/>
</g>
<!-- AdminStrategy -->
<g id="node7" class="node">
<title>AdminStrategy</title>
<ellipse fill="#fdb462" stroke="black" cx="527" cy="-66.8" rx="70.08" ry="18"/>
<text text-anchor="middle" x="527" y="-62.6" font-family="Times,serif" font-size="14.00">AdminStrategy</text>
</g>
<!-- AdminStrategy&#45;&gt;AuthModule -->
<g id="edge6" class="edge">
<title>AdminStrategy&#45;&gt;AuthModule</title>
<path fill="none" stroke="black" d="M480.55,-80.3C480.55,-100.64 480.55,-136.8 480.55,-136.8 480.55,-136.8 450.73,-136.8 450.73,-136.8"/>
<polygon fill="black" stroke="black" points="450.73,-133.3 440.73,-136.8 450.73,-140.3 450.73,-133.3"/>
</g>
<!-- AuthService -->
<g id="node8" class="node">
<title>AuthService</title>
<ellipse fill="#fdb462" stroke="black" cx="380" cy="-66.8" rx="59.11" ry="18"/>
<text text-anchor="middle" x="380" y="-62.6" font-family="Times,serif" font-size="14.00">AuthService</text>
</g>
<!-- AuthService&#45;&gt;AuthModule -->
<g id="edge7" class="edge">
<title>AuthService&#45;&gt;AuthModule</title>
<path fill="none" stroke="black" d="M374.75,-84.81C374.75,-84.81 374.75,-114.65 374.75,-114.65"/>
<polygon fill="black" stroke="black" points="371.25,-114.65 374.75,-124.65 378.25,-114.65 371.25,-114.65"/>
</g>
<!-- JwtStrategy -->
<g id="node9" class="node">
<title>JwtStrategy</title>
<ellipse fill="#fdb462" stroke="black" cx="246" cy="-66.8" rx="56.76" ry="18"/>
<text text-anchor="middle" x="246" y="-62.6" font-family="Times,serif" font-size="14.00">JwtStrategy</text>
</g>
<!-- JwtStrategy&#45;&gt;AuthModule -->
<g id="edge8" class="edge">
<title>JwtStrategy&#45;&gt;AuthModule</title>
<path fill="none" stroke="black" d="M272.94,-82.95C272.94,-101.91 272.94,-130.8 272.94,-130.8 272.94,-130.8 343.26,-130.8 343.26,-130.8"/>
<polygon fill="black" stroke="black" points="343.26,-134.3 353.26,-130.8 343.26,-127.3 343.26,-134.3"/>
</g>
<!-- LocalStrategy -->
<g id="node10" class="node">
<title>LocalStrategy</title>
<ellipse fill="#fdb462" stroke="black" cx="106" cy="-66.8" rx="65.41" ry="18"/>
<text text-anchor="middle" x="106" y="-62.6" font-family="Times,serif" font-size="14.00">LocalStrategy</text>
</g>
<!-- LocalStrategy&#45;&gt;AuthModule -->
<g id="edge9" class="edge">
<title>LocalStrategy&#45;&gt;AuthModule</title>
<path fill="none" stroke="black" d="M171.33,-66.8C177.71,-66.8 181.88,-66.8 181.88,-66.8 181.88,-66.8 181.88,-136.8 181.88,-136.8 181.88,-136.8 343.21,-136.8 343.21,-136.8"/>
<polygon fill="black" stroke="black" points="343.21,-140.3 353.21,-136.8 343.21,-133.3 343.21,-140.3"/>
</g>
<!-- CategoryService -->
<g id="node11" class="node">
<title>CategoryService</title>
<ellipse fill="#fdb462" stroke="black" cx="99" cy="-142.8" rx="75.28" ry="18"/>
<text text-anchor="middle" x="99" y="-138.6" font-family="Times,serif" font-size="14.00">CategoryService</text>
</g>
<!-- CategoryService&#45;&gt;CategoryModule -->
<g id="edge11" class="edge">
<title>CategoryService&#45;&gt;CategoryModule</title>
<path fill="none" stroke="black" d="M174.51,-142.8C209.41,-142.8 243.25,-142.8 243.25,-142.8 243.25,-142.8 243.25,-179.69 243.25,-179.69"/>
<polygon fill="black" stroke="black" points="239.75,-179.69 243.25,-189.69 246.75,-179.69 239.75,-179.69"/>
</g>
<!-- QuestionService -->
<g id="node12" class="node">
<title>QuestionService</title>
<ellipse fill="#fdb462" stroke="black" cx="579" cy="-142.8" rx="74.72" ry="18"/>
<text text-anchor="middle" x="579" y="-138.6" font-family="Times,serif" font-size="14.00">QuestionService</text>
</g>
<!-- QuestionService&#45;&gt;QuestionModule -->
<g id="edge13" class="edge">
<title>QuestionService&#45;&gt;QuestionModule</title>
<path fill="none" stroke="black" d="M508.05,-148.8C476.52,-148.8 446.41,-148.8 446.41,-148.8 446.41,-148.8 446.41,-179.78 446.41,-179.78"/>
<polygon fill="black" stroke="black" points="442.91,-179.78 446.41,-189.78 449.91,-179.78 442.91,-179.78"/>
</g>
</g>
</svg>
