<?xml version="1.0" encoding="UTF-8" standalone="no"?>
<!DOCTYPE svg PUBLIC "-//W3C//DTD SVG 1.1//EN"
 "http://www.w3.org/Graphics/SVG/1.1/DTD/svg11.dtd">
<!-- Generated by graphviz version 2.47.3 (20210619.1520)
 -->
<!-- Title: dependencies Pages: 1 -->
<svg width="612pt" height="247pt"
 viewBox="0.00 0.00 612.00 246.80" xmlns="http://www.w3.org/2000/svg" xmlns:xlink="http://www.w3.org/1999/xlink">
<g id="graph0" class="graph" transform="scale(1 1) rotate(0) translate(4 242.8)">
<title>dependencies</title>
<polygon fill="white" stroke="transparent" points="-4,4 -4,-242.8 608,-242.8 608,4 -4,4"/>
<text text-anchor="middle" x="302" y="-8.2" font-family="sans-serif" font-size="14.00">dependencies</text>
<g id="clust1" class="cluster">
<title>cluster_AuthModule</title>
<polygon fill="none" stroke="black" stroke-dasharray="1,5" points="8,-32.8 8,-230.8 596,-230.8 596,-32.8 8,-32.8"/>
</g>
<g id="clust4" class="cluster">
<title>cluster_AuthModule_exports</title>
<polygon fill="none" stroke="black" points="186,-170.8 186,-222.8 415,-222.8 415,-170.8 186,-170.8"/>
</g>
<g id="clust6" class="cluster">
<title>cluster_AuthModule_providers</title>
<polygon fill="none" stroke="black" points="16,-40.8 16,-92.8 588,-92.8 588,-40.8 16,-40.8"/>
</g>
<!-- AdminStrategy  -->
<g id="node1" class="node">
<title>AdminStrategy </title>
<polygon fill="#fb8072" stroke="black" points="406.54,-214.8 301.46,-214.8 301.46,-178.8 406.54,-178.8 406.54,-214.8"/>
<text text-anchor="middle" x="354" y="-192.6" font-family="Times,serif" font-size="14.00">AdminStrategy </text>
</g>
<!-- AuthService  -->
<g id="node2" class="node">
<title>AuthService </title>
<polygon fill="#fb8072" stroke="black" points="283.98,-214.8 194.02,-214.8 194.02,-178.8 283.98,-178.8 283.98,-214.8"/>
<text text-anchor="middle" x="239" y="-192.6" font-family="Times,serif" font-size="14.00">AuthService </text>
</g>
<!-- AuthModule -->
<g id="node3" class="node">
<title>AuthModule</title>
<polygon fill="#8dd3c7" stroke="black" points="339.55,-149.8 336.55,-153.8 315.55,-153.8 312.55,-149.8 252.45,-149.8 252.45,-113.8 339.55,-113.8 339.55,-149.8"/>
<text text-anchor="middle" x="296" y="-127.6" font-family="Times,serif" font-size="14.00">AuthModule</text>
</g>
<!-- AuthModule&#45;&gt;AdminStrategy  -->
<g id="edge1" class="edge">
<title>AuthModule&#45;&gt;AdminStrategy </title>
<path fill="none" stroke="black" stroke-dasharray="5,2" d="M320.63,-149.91C320.63,-149.91 320.63,-168.79 320.63,-168.79"/>
<polygon fill="black" stroke="black" points="317.13,-168.79 320.63,-178.79 324.13,-168.79 317.13,-168.79"/>
</g>
<!-- AuthModule&#45;&gt;AuthService  -->
<g id="edge2" class="edge">
<title>AuthModule&#45;&gt;AuthService </title>
<path fill="none" stroke="black" stroke-dasharray="5,2" d="M267.98,-149.91C267.98,-149.91 267.98,-168.79 267.98,-168.79"/>
<polygon fill="black" stroke="black" points="264.48,-168.79 267.98,-178.79 271.48,-168.79 264.48,-168.79"/>
</g>
<!-- AdminStrategy -->
<g id="node4" class="node">
<title>AdminStrategy</title>
<ellipse fill="#fdb462" stroke="black" cx="510" cy="-66.8" rx="70.08" ry="18"/>
<text text-anchor="middle" x="510" y="-62.6" font-family="Times,serif" font-size="14.00">AdminStrategy</text>
</g>
<!-- AdminStrategy&#45;&gt;AuthModule -->
<g id="edge3" class="edge">
<title>AdminStrategy&#45;&gt;AuthModule</title>
<path fill="none" stroke="black" d="M510,-84.91C510,-104.14 510,-131.8 510,-131.8 510,-131.8 349.56,-131.8 349.56,-131.8"/>
<polygon fill="black" stroke="black" points="349.56,-128.3 339.56,-131.8 349.56,-135.3 349.56,-128.3"/>
</g>
<!-- AuthService -->
<g id="node5" class="node">
<title>AuthService</title>
<ellipse fill="#fdb462" stroke="black" cx="363" cy="-66.8" rx="59.11" ry="18"/>
<text text-anchor="middle" x="363" y="-62.6" font-family="Times,serif" font-size="14.00">AuthService</text>
</g>
<!-- AuthService&#45;&gt;AuthModule -->
<g id="edge4" class="edge">
<title>AuthService&#45;&gt;AuthModule</title>
<path fill="none" stroke="black" d="M321.73,-79.95C321.73,-79.95 321.73,-103.49 321.73,-103.49"/>
<polygon fill="black" stroke="black" points="318.23,-103.49 321.73,-113.49 325.23,-103.49 318.23,-103.49"/>
</g>
<!-- JwtStrategy -->
<g id="node6" class="node">
<title>JwtStrategy</title>
<ellipse fill="#fdb462" stroke="black" cx="229" cy="-66.8" rx="56.76" ry="18"/>
<text text-anchor="middle" x="229" y="-62.6" font-family="Times,serif" font-size="14.00">JwtStrategy</text>
</g>
<!-- JwtStrategy&#45;&gt;AuthModule -->
<g id="edge5" class="edge">
<title>JwtStrategy&#45;&gt;AuthModule</title>
<path fill="none" stroke="black" d="M268.93,-79.64C268.93,-79.64 268.93,-103.32 268.93,-103.32"/>
<polygon fill="black" stroke="black" points="265.43,-103.32 268.93,-113.32 272.43,-103.32 265.43,-103.32"/>
</g>
<!-- LocalStrategy -->
<g id="node7" class="node">
<title>LocalStrategy</title>
<ellipse fill="#fdb462" stroke="black" cx="89" cy="-66.8" rx="65.41" ry="18"/>
<text text-anchor="middle" x="89" y="-62.6" font-family="Times,serif" font-size="14.00">LocalStrategy</text>
</g>
<!-- LocalStrategy&#45;&gt;AuthModule -->
<g id="edge6" class="edge">
<title>LocalStrategy&#45;&gt;AuthModule</title>
<path fill="none" stroke="black" d="M89,-84.91C89,-104.14 89,-131.8 89,-131.8 89,-131.8 242.35,-131.8 242.35,-131.8"/>
<polygon fill="black" stroke="black" points="242.35,-135.3 252.35,-131.8 242.35,-128.3 242.35,-135.3"/>
</g>
</g>
</svg>
